Coordinates
version=1
nRows=19
nColumns=36
inDegrees=yes

Units are S.I. units (second, meters, Newtons, ...)
If the header above contains a line with 'inDegrees', this indicates whether rotational values are in degrees (yes) or radians (no).

endheader
time	pelvis_tilt	pelvis_list	pelvis_rotation	pelvis_tx	pelvis_ty	pelvis_tz	hip_flexion_r	hip_adduction_r	hip_rotation_r	knee_angle_r	knee_angle_r_beta	ankle_angle_r	subtalar_angle_r	mtp_angle_r	hip_flexion_l	hip_adduction_l	hip_rotation_l	knee_angle_l	knee_angle_l_beta	ankle_angle_l	subtalar_angle_l	mtp_angle_l	lumbar_extension	lumbar_bending	lumbar_rotation	arm_flex_r	arm_add_r	arm_rot_r	elbow_flex_r	pro_sup_r	arm_flex_l	arm_add_l	arm_rot_l	elbow_flex_l	pro_sup_l
      3.78750000	    -14.55382042	      1.14375951	      2.94160283	      0.36198684	      1.22178970	     -0.05654667	     18.92053900	     -5.62250940	    -14.89374065	      6.56334092	      0.11455191	    -41.43616031	     -9.34302000	     -7.49999987	     15.20753274	     -4.38098247	     -9.15656731	      3.20874306	      0.05600313	    -28.41826084	     -7.03164828	     -7.49999987	     -9.01126993	     -3.27588064	     -2.86193138	     61.95334636	    -15.45224956	     20.34824948	    121.30852329	    104.54457813	     78.91922544	    -25.27723979	     46.24742920	    111.26415642	     90.70707217
      3.79166670	    -14.50910955	      1.12354619	      2.94644440	      0.36110155	      1.21598600	     -0.05855865	     19.08610712	     -5.79219536	    -15.03123112	      7.15363242	      0.12485444	    -40.45957485	     -9.68253565	     -7.49999987	     15.20927999	     -4.27174765	     -9.43059267	      3.24980996	      0.05671988	    -27.76719837	     -6.73565225	     -7.49999987	     -9.02676394	     -3.07391853	     -2.75739993	     62.39298091	    -15.46348401	     20.69604074	    120.95233978	    104.66007369	     78.95976237	    -25.05831123	     46.06189843	    110.92770956	     91.00532235
      3.79583330	    -14.48504960	      1.04310993	      2.99750724	      0.36182973	      1.21037344	     -0.05582604	     19.23407165	     -5.81538524	    -14.94295655	      7.66224457	      0.13373140	    -39.94797012	    -10.02838064	     -7.49999987	     15.26358686	     -4.28635714	     -9.27760384	      3.35657615	      0.05858331	    -27.38871663	     -6.71830606	     -7.49999987	     -9.18644779	     -2.87527235	     -2.72639436	     62.79696719	    -15.29429599	     21.00407931	    120.83339128	    104.62028514	     79.08401031	    -25.01688281	     46.02614614	    110.95625693	     91.26615299
      3.80000000	    -14.49269887	      0.89298353	      2.91726092	      0.36085166	      1.20354270	     -0.05657979	     19.52022717	     -5.75093614	    -15.01512772	      8.31847922	      0.14518485	    -39.22137253	    -10.50472301	     -7.49999987	     15.36307658	     -4.43771289	     -9.38486404	      3.36898089	      0.05879981	    -26.92970245	     -6.49688237	     -7.49999987	     -9.29879136	     -2.72354102	     -2.61403360	     63.09077827	    -15.29805514	     20.95031859	    120.95580608	    104.61801872	     79.36275134	    -24.98105597	     46.16618020	    111.01131865	     91.20848888
      3.80416670	    -14.53729379	      0.70839277	      2.89722157	      0.35951259	      1.19539086	     -0.05631533	     19.81529767	     -5.70317865	    -15.29262057	      8.91528308	      0.15560104	    -38.26093547	    -10.96711865	     -7.49999987	     15.57818998	     -4.53580267	     -9.44193687	      3.54418569	      0.06185771	    -26.28432736	     -6.64675159	     -7.49999987	     -9.21290963	     -2.49319712	     -2.57676816	     63.31374871	    -15.27814480	     20.87174569	    120.77340736	    104.26428773	     79.56840451	    -24.93943559	     46.09736211	    110.88670997	     90.99443497
      3.80833330	    -14.59731173	      0.61146490	      2.83685542	      0.35877498	      1.19023003	     -0.05755290	     20.24248888	     -5.76709115	    -15.40445587	      9.71382551	      0.16953824	    -37.85129575	    -12.07217894	     -7.49999987	     15.75968085	     -4.54001839	     -9.48358417	      3.57450816	      0.06238694	    -25.95701926	     -6.81436748	     -7.49999987	     -9.27249659	     -2.29759022	     -2.50128899	     63.58005521	    -15.36587254	     20.83077899	    121.07368570	    103.99079305	     79.82842331	    -25.02727883	     46.12588259	    111.06682295	     90.90004482
      3.81250000	    -14.62631521	      0.59450524	      2.82780082	      0.35779139	      1.18597433	     -0.05743378	     20.46662326	     -5.88337300	    -15.88175872	     10.21821456	      0.17834149	    -37.19985065	    -12.88767828	     -7.49999987	     15.87231682	     -4.47335013	     -9.61199230	      3.53731620	      0.06173781	    -25.62856031	     -6.84727732	     -7.49999987	     -9.25199876	     -2.23127204	     -2.34529410	     63.70345404	    -15.45037327	     20.82501354	    121.03301299	    104.19239489	     79.96733559	    -24.86069874	     46.03497373	    110.81024714	     91.50795939
      3.81666670	    -14.58592144	      0.57630538	      2.99712824	      0.35844223	      1.17843258	     -0.05782947	     20.53509960	     -5.98225056	    -16.29470894	     10.73748408	      0.18740445	    -36.20759055	    -13.48898549	     -7.49999987	     15.99447989	     -4.35969903	     -9.59444699	      3.74402454	      0.06534556	    -25.33997946	     -6.84681504	     -7.49999987	     -9.23441764	     -2.09424795	     -2.32665108	     63.66806008	    -15.41757364	     20.86923032	    120.89098169	    103.91386049	     79.77661030	    -24.78039434	     46.06243680	    110.58489314	     91.31376610
      3.82083330	    -14.70587118	      0.53181769	      3.26816200	      0.35576659	      1.17434158	     -0.05655843	     20.81362030	     -6.09890545	    -16.27895597	     11.29674491	      0.19716539	    -35.57120019	    -14.60360569	     -7.49999987	     16.35802583	     -4.23617876	     -9.28513447	      4.00868841	      0.06996481	    -25.12134568	     -7.13594675	     -7.49999987	     -9.22138636	     -1.96514071	     -2.32907966	     63.68416697	    -15.42783435	     21.06943116	    121.19086250	    101.88964530	     79.74935573	    -24.56223961	     45.90270232	    110.51546582	     89.09252041
      3.82500000	    -14.56232856	      0.51958140	      3.43020849	      0.35518400	      1.16758146	     -0.05744153	     20.77107294	     -6.26151559	    -16.59245594	     11.68177608	      0.20388546	    -34.30236786	    -14.43301335	     -7.49999987	     16.39037799	     -4.13817172	     -9.25667205	      4.26512767	      0.07444052	    -24.55593896	     -6.33765142	     -7.49999987	     -9.44492582	     -1.89444137	     -2.34563998	     63.68588742	    -15.32304124	     20.95137162	    120.97472095	    104.61578931	     79.95265854	    -24.30670450	     45.93504190	    110.12985100	     90.80840426
      3.82916670	    -14.56823812	      0.39289130	      3.62911873	      0.35300958	      1.15942196	     -0.05792321	     21.08650812	     -6.30821202	    -16.94666118	     12.35690901	      0.21566875	    -33.65114867	    -14.96353201	     -7.49999987	     16.70974289	     -4.13630021	     -9.30427983	      4.61516505	      0.08054983	    -24.31416697	     -6.21489402	     -7.49999987	     -9.62497697	     -1.66177592	     -2.36214401	     63.93712988	    -15.20496689	     21.00415688	    120.78623116	    104.26335503	     80.11605041	    -24.09395358	     45.91173973	    109.98807423	     90.60650591
      3.83333330	    -14.47343060	      0.44469183	      3.76832076	      0.35306870	      1.15520817	     -0.05872291	     21.21488320	     -6.50133206	    -17.02514744	     12.88074042	      0.22481133	    -33.43257447	    -15.77384697	     -7.49999987	     16.89447225	     -3.96435958	     -9.30434008	      4.96376034	      0.08663396	    -24.20830628	     -5.95300712	     -7.49999987	     -9.89690429	     -1.56799193	     -2.42295981	     64.14730919	    -15.18953436	     21.29561651	    120.63227539	    103.28599574	     80.28281982	    -24.01687246	     46.07295655	    109.95052313	     89.81465718
      3.83750000	    -14.45327359	      0.42245123	      3.94703004	      0.35155251	      1.14888913	     -0.06060766	     21.40027241	     -6.70235300	    -17.28443167	     13.37144482	      0.23337574	    -32.80457858	    -15.76640699	     -7.49999987	     17.20922050	     -3.79994288	     -9.20291529	      5.39749735	      0.09420410	    -24.05834566	     -5.71217141	     -7.49999987	    -10.11048729	     -1.34967513	     -2.51684354	     64.36820175	    -15.05753383	     21.56210404	    120.41964538	    103.62081285	     80.27029277	    -23.74934529	     46.01170072	    110.01421971	     90.02573225
      3.84166670	    -14.48059763	      0.45408045	      3.98504329	      0.35063962	      1.14079879	     -0.05928792	     21.69194286	     -6.85189775	    -17.59441670	     13.96109289	      0.24366704	    -33.09742064	    -16.49447591	     -7.49999987	     17.52778653	     -3.65629821	     -9.06439838	      5.86281675	      0.10232546	    -24.09886010	     -5.16597047	     -7.49999987	    -10.21898549	     -1.21795711	     -2.43090543	     64.45123395	    -15.12105126	     21.79540594	    120.46222867	    102.43126822	     80.15784204	    -23.52870393	     46.02884763	    110.08849832	     89.21187981
      3.84583330	    -14.58260393	      0.50194091	      3.82827333	      0.34911226	      1.13016703	     -0.05892922	     22.07247974	     -6.97755446	    -17.84380528	     14.42176859	      0.25170735	    -32.01835389	    -16.89626316	     -7.49999987	     17.79134137	     -3.57612176	     -8.69839443	      6.33427900	      0.11055402	    -23.61748242	     -4.93493783	     -7.49999987	    -10.24404590	     -1.11313747	     -2.23357586	     64.63914461	    -15.03923256	     21.84014353	    120.23525605	    102.08399090	     80.27633186	    -23.39307199	     45.96532037	    110.02547367	     89.00176794
      3.85000000	    -14.85471589	      0.55522741	      3.87915421	      0.34554905	      1.12425070	     -0.05793240	     22.73044437	     -7.16235341	    -17.69911204	     15.07862033	      0.26317157	    -31.72597881	    -17.27630496	     -7.49999987	     18.53598159	     -3.43289529	     -7.91690882	      7.03313727	      0.12275140	    -23.15920793	     -4.30090771	     -7.49999987	    -10.23078554	     -0.94944701	     -2.33365767	     65.06386324	    -14.90949393	     22.07017321	    120.47406143	    104.24640104	     80.35530918	    -23.47071274	     45.60870595	    110.62981641	     90.79724517
      3.85416670	    -14.98234970	      0.59098380	      3.90672059	      0.34618443	      1.11789944	     -0.05918643	     23.12461651	     -7.37171264	    -17.84497493	     15.47524990	      0.27009406	    -31.24753317	    -17.30027553	     -7.49999987	     18.97117675	     -3.24258638	     -7.55650397	      7.45794847	      0.13016576	    -23.08905901	     -3.70105428	     -7.49999987	    -10.29216302	     -0.77073668	     -2.24903305	     65.35113770	    -14.77868139	     22.27969851	    120.39688755	    104.26231252	     80.31564555	    -23.31535051	     45.40949240	    110.79302379	     90.80775371
      3.85833330	    -15.15197690	      0.56778109	      3.82743422	      0.34345817	      1.10805781	     -0.06003493	     23.69267644	     -7.50828313	    -17.78754712	     15.97273644	      0.27877684	    -30.64717549	    -17.37236811	     -7.49999987	     19.50323059	     -3.11957647	     -6.92392836	      7.98079282	      0.13929111	    -23.06278909	     -3.14862858	     -7.49999987	    -10.38200835	     -0.55283288	     -2.06626828	     65.82218390	    -14.62741241	     22.32731061	    120.17721711	    103.80187541	     80.45800894	    -23.14654271	     45.31456196	    110.68452169	     90.52846450
      3.86250000	    -15.45242247	      0.57095953	      3.86309101	      0.34215508	      1.10110453	     -0.06081419	     24.40742913	     -7.75640235	    -17.54201243	     16.53227095	      0.28854256	    -30.36383695	    -18.10872420	     -7.49999987	     20.30484477	     -2.96573465	     -6.25886436	      8.73147743	      0.15239303	    -22.58095407	     -2.51335337	     -7.49999987	    -10.30016406	     -0.16853750	     -2.27243846	     66.44659520	    -14.22859119	     23.14978778	    119.78886824	    103.87184530	     80.07644880	    -23.49177764	     44.63239008	    111.32381996	     90.45705010
